Coordinates
version=1
nRows=19
nColumns=24
inDegrees=yes

Units are S.I. units (second, meters, Newtons, ...)
Angles are in degrees.

endheader
time	pelvis_tilt	pelvis_list	pelvis_rotation	pelvis_tx	pelvis_ty	pelvis_tz	hip_flexion_r	hip_adduction_r	hip_rotation_r	knee_angle_r	ankle_angle_r	subtalar_angle_r	mtp_angle_r	hip_flexion_l	hip_adduction_l	hip_rotation_l	knee_angle_l	ankle_angle_l	subtalar_angle_l	mtp_angle_l	lumbar_extension	lumbar_bending	lumbar_rotation
      7.07000000	    -11.37431198	      7.28167049	      3.96571545	     -1.69985282	     -0.02884309	      2.07462097	     19.53746241	    -11.98327242	     -8.49558418	    -61.10229868	    -18.58503007	    -11.52480046	     16.34563780	     26.85670338	     12.10800618	     -1.49927805	    -21.83605200	     -1.69906637	     -6.24879190	     15.09789159	      9.28554213	     -8.66827148	     -0.82223632
      7.08000000	    -11.13298663	      7.13627227	      3.57257431	     -1.68715113	     -0.02655623	      2.07406608	     21.10352435	    -11.34996406	     -7.37428576	    -61.69208588	    -16.68350029	    -11.82578220	     16.75217522	     25.42473874	     11.87575039	     -1.50851607	    -21.27574708	     -1.07918915	     -6.25825112	     15.27816191	      8.94653119	     -8.36213339	     -0.78651381
      7.09000000	    -10.91497720	      6.96077952	      3.16023462	     -1.67455117	     -0.02424081	      2.07354785	     22.64335041	    -10.64350405	     -6.29758584	    -61.94269850	    -14.92638556	    -11.89053649	     17.26750784	     23.92635100	     11.63648403	     -1.38737497	    -20.53945030	     -0.56877439	     -6.41349586	     15.21253164	      8.63047632	     -8.02112537	     -0.70819883
      7.10000000	    -10.65732686	      6.72737952	      2.78541133	     -1.66196935	     -0.02186745	      2.07290966	     24.01676625	     -9.89657593	     -5.38973778	    -61.79202343	    -13.46625624	    -11.87570020	     18.81313340	     22.31183325	     11.39564376	     -1.06625756	    -19.72598982	      0.18085568	     -6.53873045	     13.41669664	      8.26781858	     -7.61822164	     -0.67774973
      7.11000000	    -10.47613117	      6.47039291	      2.39936045	     -1.64947605	     -0.01967832	      2.07238586	     25.41157217	     -9.11031882	     -4.58215751	    -61.37957899	    -11.96321231	    -11.76734854	     19.09431305	     20.73827548	     11.11782561	     -0.80100481	    -18.76739635	      0.58781313	     -6.85320800	     12.71246019	      7.98257585	     -7.21004162	     -0.65643123
      7.12000000	    -10.36095674	      6.15479429	      2.14696116	     -1.63697814	     -0.01775357	      2.07172093	     26.73810394	     -8.37359354	     -4.09497819	    -60.66669620	    -10.43814505	    -11.57168879	     19.28149996	     19.24168512	     10.81191057	     -0.51068739	    -17.82320149	      1.01414760	     -7.02062414	     12.25279127	      7.76202015	     -6.77685505	     -0.69847989
      7.13000000	    -10.15353702	      5.71345731	      1.98814790	     -1.62452469	     -0.01579846	      2.07097572	     27.81433775	     -7.57518163	     -3.93277842	    -59.57803595	     -9.23182893	    -11.70356763	     18.74912286	     17.66218015	     10.41148313	     -0.04575526	    -16.95828336	      1.74384632	     -7.06778991	     10.08290040	      7.42459693	     -6.23496203	     -0.88983439
      7.14000000	    -10.15596820	      5.39647072	      1.87277262	     -1.61209261	     -0.01442884	      2.07015390	     29.08467696	     -6.99687078	     -3.85094148	    -58.34932484	     -8.00147667	    -11.53075061	     18.67869558	     16.31492313	     10.12509991	      0.21015382	    -16.01832130	      2.05990532	     -7.17293125	      9.78861968	      7.31528844	     -5.83894085	     -1.07302363
      7.15000000	    -10.05835640	      4.97647341	      1.91233038	     -1.59961993	     -0.01305068	      2.06911371	     30.07905232	     -6.45324797	     -4.16934994	    -56.76873684	     -7.13765096	    -11.60166419	     18.24245797	     14.84922570	      9.76422800	      0.56845931	    -15.07044786	      2.38172725	     -7.25382963	      9.32993335	      7.09540394	     -5.35680467	     -1.44198642
      7.16000000	     -9.98968753	      4.64005245	      1.91882669	     -1.58713532	     -0.01199287	      2.06816040	     31.05722858	     -5.98848848	     -4.45956579	    -55.04035109	     -6.27040178	    -11.46641819	     17.02088291	     13.40732413	      9.45954336	      0.82644310	    -14.11169533	      2.82123582	     -7.18407339	      8.29937286	      6.91389193	     -4.96417297	     -1.68003903
      7.17000000	    -10.10833032	      4.29262152	      2.14109721	     -1.57472646	     -0.01142884	      2.06694632	     32.12028880	     -5.67905691	     -5.00036330	    -53.11189273	     -5.51216598	    -11.09776417	     16.98209572	     12.22583412	      9.16371678	      1.04420762	    -13.23358633	      3.18805379	     -6.92428190	      8.23434041	      6.91423680	     -4.60054554	     -2.16788272
      7.18000000	    -10.14123416	      3.93790506	      2.38004842	     -1.56231501	     -0.01095225	      2.06578505	     32.97397414	     -5.36625900	     -5.55967677	    -50.95635254	     -4.78896822	    -10.52820031	     17.01898853	     10.93442672	      8.83615002	      1.25030550	    -12.31407432	      3.53538217	     -6.61514508	      8.18315232	      6.82468406	     -4.23381225	     -2.61174440
      7.19000000	    -10.19590906	      3.57908789	      2.65383943	     -1.54995800	     -0.01070827	      2.06468501	     33.75246576	     -5.05858926	     -6.11825775	    -48.61687656	     -4.03278641	     -9.67959630	     17.22088455	      9.68467779	      8.48483397	      1.42607839	    -11.41394814	      3.89813409	     -6.22139018	      8.16871748	      6.75049862	     -3.87917399	     -3.07033305
      7.20000000	    -10.28770717	      3.21057719	      2.95979767	     -1.53766874	     -0.01071000	      2.06365935	     34.47783241	     -4.75060761	     -6.67471758	    -46.10682586	     -3.24574548	     -8.55507255	     17.61689387	      8.50705039	      8.10750645	      1.58801957	    -10.55773672	      4.29027802	     -5.76829408	      8.19530823	      6.70684166	     -3.52918958	     -3.52131522
      7.21000000	    -10.26378002	      2.75848829	      3.26193836	     -1.52541192	     -0.01067727	      2.06276685	     34.94449975	     -4.34284205	     -7.26860487	    -43.33111551	     -2.67150461	     -7.36056546	     18.73634264	      7.23551742	      7.61176381	      1.77215361	     -9.74385822	      4.68910096	     -5.30288194	      8.21163562	      6.53190856	     -3.09325088	     -3.95597945
      7.22000000	    -10.41150309	      2.36445055	      3.57683216	     -1.51323526	     -0.01109694	      2.06193133	     35.55137374	     -4.03861102	     -7.89563702	    -40.48601255	     -2.12380355	     -5.87035467	     20.17873080	      6.21723196	      7.17961777	      1.87760237	     -9.03783967	      5.14460277	     -4.79379208	      8.28365092	      6.52784735	     -2.73027939	     -4.40234246
      7.23000000	    -10.65248768	      2.07046235	      3.78368905	     -1.50116148	     -0.01181987	      2.06128040	     36.21920854	     -3.81075636	     -8.48761594	    -37.54388472	     -1.85332289	     -4.23466803	     22.78177858	      5.34974240	      6.85094770	      1.81289674	     -8.39751075	      5.50829973	     -4.38030374	      8.29690328	      6.60180572	     -2.46030865	     -4.64384252
      7.24000000	    -10.87175888	      1.75052502	      3.99608010	     -1.48911289	     -0.01266088	      2.06075805	     36.77213084	     -3.54833503	     -9.11400998	    -34.56600343	     -1.42770674	     -2.40074409	     23.04364824	      4.53006894	      6.48621935	      1.67173020	     -7.88059878	      5.93810686	     -3.90052662	      8.38371972	      6.63815692	     -2.16880302	     -4.93166628
      7.25000000	    -10.99667430	      1.40165688	      4.15079963	     -1.47704905	     -0.01349645	      2.06036905	     37.10798060	     -3.22575020	     -9.80186846	    -31.47515212	     -1.20028526	     -0.65255974	     23.35516429	      3.66109564	      6.07602213	      1.39074547	     -7.45472655	      6.40726252	     -3.36982379	      8.48373593	      6.56767848	     -1.82805848	     -5.14493517
